<?xml version="1.0" standalone="no"?>
<!DOCTYPE svg PUBLIC "-//W3C//DTD SVG 20010904//EN"
 "http://www.w3.org/TR/2001/REC-SVG-20010904/DTD/svg10.dtd">
<svg version="1.0" xmlns="http://www.w3.org/2000/svg"
 width="260.000000pt" height="260.000000pt" viewBox="0 0 260.000000 260.000000"
 preserveAspectRatio="xMidYMid meet">
<metadata>
Created by potrace 1.14, written by Peter Selinger 2001-2017
</metadata>
<g transform="translate(0.000000,260.000000) scale(0.100000,-0.100000)"
fill="#000000" stroke="none">
<path d="M225 2242 c-65 -22 -109 -55 -146 -105 -60 -83 -59 -62 -59 -969 l0
-828 694 0 693 0 0 680 c0 375 3 683 6 686 8 8 544 6 594 -2 21 -3 62 -14 91
-24 206 -72 316 -240 306 -465 -8 -194 -114 -334 -299 -395 -81 -26 -99 -28
-250 -29 l-131 -1 0 -226 0 -225 316 3 315 3 57 28 c69 34 121 91 148 164 19
52 20 77 20 888 l0 835 -730 0 -730 0 -1 -472 c0 -260 -2 -488 -5 -507 -14
-106 -55 -193 -129 -266 -88 -89 -196 -133 -345 -142 -112 -6 -198 11 -289 56
-57 29 -174 127 -169 141 2 4 37 44 78 90 41 45 83 92 94 105 l18 23 47 -35
c117 -90 218 -101 312 -34 37 26 57 65 67 130 3 20 6 232 6 471 l0 435 -264 2
c-230 2 -272 0 -315 -15z"/>
<path d="M1859 1439 c-11 -11 -27 -36 -35 -55 -8 -19 -20 -34 -27 -35 -52 -3
-105 -27 -112 -51 -7 -20 13 -56 51 -95 21 -21 23 -30 18 -77 -10 -86 31 -108
112 -62 40 23 41 23 75 5 42 -22 92 -24 109 -4 9 11 11 34 7 74 -6 51 -4 61
14 77 24 22 49 66 49 88 0 20 -44 42 -93 49 -21 3 -39 7 -41 8 -1 2 -13 21
-25 42 -36 59 -68 70 -102 36z"/>
</g>
</svg>
